<svg width="20" height="20" viewBox="0 0 20 20" fill="none" xmlns="http://www.w3.org/2000/svg">
<g clip-path="url(#clip0_1_1965)">
<path d="M11.6667 6.66667H13.3333V8.33333C13.3333 8.79167 13.7083 9.16667 14.1667 9.16667C14.625 9.16667 15 8.79167 15 8.33333V6.66667H16.6667C17.125 6.66667 17.5 6.29167 17.5 5.83333C17.5 5.375 17.125 5 16.6667 5H15V3.33333C15 2.875 14.625 2.5 14.1667 2.5C13.7083 2.5 13.3333 2.875 13.3333 3.33333V5H11.6667C11.2083 5 10.8333 5.375 10.8333 5.83333C10.8333 6.29167 11.2083 6.66667 11.6667 6.66667ZM16.0083 12.725L13.8917 12.4833C13.3833 12.425 12.8833 12.6 12.525 12.9583L10.9917 14.4917C8.63334 13.2917 6.70001 11.3667 5.50001 9L7.04167 7.45833C7.40001 7.1 7.57501 6.59167 7.51667 6.09167L7.27501 3.99167C7.18334 3.15 6.46667 2.50833 5.62501 2.50833H4.18334C3.24167 2.50833 2.45834 3.29167 2.51667 4.23333C2.95834 11.35 8.65001 17.0333 15.7583 17.475C16.7 17.5333 17.4833 16.75 17.4833 15.8083V14.3667C17.4917 13.5333 16.85 12.8167 16.0083 12.725V12.725Z" fill="black"/>
</g>
<defs>
<clipPath id="clip0_1_1965">
<rect width="20" height="20" fill="white"/>
</clipPath>
</defs>
</svg>
