<svg width="20" height="20" viewBox="0 0 20 20" fill="none" xmlns="http://www.w3.org/2000/svg">
<g clip-path="url(#clip0_1_1960)">
<path d="M16.6667 3.33301H3.33335C2.41669 3.33301 1.67502 4.08301 1.67502 4.99967L1.66669 14.9997C1.66669 15.9163 2.41669 16.6663 3.33335 16.6663H16.6667C17.5834 16.6663 18.3334 15.9163 18.3334 14.9997V4.99967C18.3334 4.08301 17.5834 3.33301 16.6667 3.33301ZM15.8334 14.9997H4.16669C3.70835 14.9997 3.33335 14.6247 3.33335 14.1663V6.66634L9.11669 10.283C9.65835 10.6247 10.3417 10.6247 10.8834 10.283L16.6667 6.66634V14.1663C16.6667 14.6247 16.2917 14.9997 15.8334 14.9997ZM10 9.16634L3.33335 4.99967H16.6667L10 9.16634Z" fill="black"/>
</g>
<defs>
<clipPath id="clip0_1_1960">
<rect width="20" height="20" fill="white"/>
</clipPath>
</defs>
</svg>
